<svg width="256" height="256" viewBox="0 0 300 300" xmlns="http://www.w3.org/2000/svg">
  <g transform="translate(60, 65)">
    <g transform="translate(0, 0)">
      <path
        d="M 20 0
           H 85
           A 20 20 0 0 1 105 20
           V 70
           A 20 20 0 0 1 85 90
           H 45
           L 35 110
           L 25 90
           H 20
           A 20 20 0 0 1 0 70
           V 20
           A 20 20 0 0 1 20 0
           Z"
        fill="#2DD4BF"
        stroke="#2DD4BF"
        stroke-width="3"
        stroke-linejoin="round"
      />
      <text
        x="52.5"
        y="62"
        font-family="Arial, sans-serif"
        font-weight="900"
        font-size="54"
        fill="white"
        text-anchor="middle"
      >
        A
      </text>
    </g>

    <g transform="translate(70, 45)">
      <path
        d="M 20 0
           H 85
           A 20 20 0 0 1 105 20
           V 70
           A 20 20 0 0 1 85 90
           H 80
           L 70 110
           L 60 90
           H 20
           A 20 20 0 0 1 0 70
           V 20
           A 20 20 0 0 1 20 0
           Z"
        fill="white"
        stroke="#2DD4BF"
        stroke-width="3"
        stroke-linejoin="round"
      />
      <text
        x="52.5"
        y="65"
        font-family="'Noto Sans SC', 'STHeiti', 'PingFang SC', sans-serif"
        font-weight="bold"
        font-size="52"
        fill="#2DD4BF"
        text-anchor="middle"
      >
        文
      </text>
    </g>
  </g>
</svg>
